<?xml version="1.0" standalone="no"?>
<!DOCTYPE svg PUBLIC "-//W3C//DTD SVG 20010904//EN"
 "http://www.w3.org/TR/2001/REC-SVG-20010904/DTD/svg10.dtd">
<svg version="1.0" xmlns="http://www.w3.org/2000/svg"
 width="1489.000000pt" height="1489.000000pt" viewBox="0 0 1489.000000 1489.000000"
 preserveAspectRatio="xMidYMid meet">

<g transform="translate(0.000000,1489.000000) scale(0.100000,-0.100000)"
fill="#000000" stroke="none">
<path d="M0 7445 l0 -7445 7445 0 7445 0 0 7445 0 7445 -7445 0 -7445 0 0
-7445z m7756 6564 c7 -6 16 -4 24 6 18 22 35 19 74 -15 l34 -31 38 26 c92 62
215 -3 201 -107 -9 -70 -46 -90 -127 -67 -10 3 -16 -5 -18 -24 -3 -25 -1 -27
30 -25 33 3 33 2 39 -47 3 -27 15 -78 27 -111 21 -59 21 -64 5 -110 l-16 -48
-26 35 c-55 75 -146 155 -203 179 -51 21 -57 27 -63 59 -12 66 -46 154 -76
197 -31 46 -35 64 -19 94 9 16 15 18 37 9 15 -6 33 -14 39 -20z m-806 6 c16
-14 20 -14 47 1 16 10 37 15 46 11 21 -8 23 -64 3 -86 -26 -29 -63 -115 -80
-186 l-17 -71 -51 -18 c-38 -13 -71 -37 -123 -90 -39 -39 -79 -82 -88 -96 -14
-21 -18 -23 -26 -10 -23 33 -24 83 -3 149 11 36 23 85 27 109 6 38 9 42 36 42
24 0 29 4 29 25 0 29 -2 29 -46 13 -43 -15 -79 7 -95 60 -17 59 7 107 67 133
53 24 97 20 137 -11 32 -26 33 -26 74 10 39 35 41 35 63 15z m445 -160 c-19
-81 -35 -149 -35 -151 0 -2 27 -4 60 -4 33 0 60 -2 60 -5 0 -14 -215 -404
-218 -396 -2 6 11 71 28 146 17 75 28 140 24 146 -3 5 -28 9 -55 8 -27 -2 -50
-1 -53 2 -2 2 26 58 62 124 35 66 85 157 109 203 25 46 47 82 49 79 3 -2 -11
-71 -31 -152z m536 -312 c25 -26 57 -64 71 -83 20 -28 58 -51 194 -114 93 -44
237 -112 321 -152 83 -40 161 -75 172 -79 17 -5 34 5 79 47 64 59 158 109 241
128 64 15 204 8 227 -11 32 -26 36 -58 13 -104 -27 -54 -45 -63 -144 -68 -56
-3 -94 -11 -128 -27 -65 -31 -150 -110 -184 -171 -16 -27 -33 -49 -40 -49 -6
0 -201 94 -432 210 l-420 209 -36 56 c-19 31 -51 65 -71 77 -28 16 -34 25 -30
42 4 12 9 53 12 91 3 39 7 76 10 83 6 21 93 -30 145 -85z m-978 20 c4 -38 9
-84 12 -103 6 -32 3 -37 -29 -57 -19 -12 -52 -47 -73 -78 l-38 -55 -424 -210
c-233 -116 -424 -209 -425 -208 -16 34 -89 127 -123 158 -68 64 -139 92 -245
98 l-89 5 -24 42 c-48 82 -28 121 69 136 137 22 284 -28 402 -135 l61 -55 49
23 c85 40 305 143 590 278 23 10 55 37 72 61 62 87 155 165 198 167 6 0 14
-28 17 -67z m-452 46 c45 -16 77 -45 99 -94 32 -71 31 -76 -30 -106 l-55 -27
-18 21 c-12 13 -17 33 -16 56 2 27 -1 35 -11 33 -28 -6 -43 -31 -44 -74 -1
-36 -5 -44 -22 -46 -15 -2 -24 -12 -27 -31 -6 -26 -40 -51 -72 -51 -7 0 -19
16 -26 35 -7 19 -17 35 -21 35 -11 0 -10 -33 2 -64 9 -24 6 -28 -30 -46 -47
-24 -66 -25 -74 -5 -10 26 -26 16 -20 -12 5 -26 1 -30 -51 -52 l-55 -23 -48
43 c-26 24 -57 56 -70 71 l-23 27 41 21 c30 15 41 26 37 38 -2 9 -6 23 -8 31
-3 10 9 17 40 23 24 4 69 23 100 41 56 33 60 42 50 91 -3 17 5 21 66 32 39 7
97 19 130 27 74 19 112 20 156 6z m1941 -14 c57 -14 113 -25 126 -25 24 0 26
-7 12 -44 -8 -22 -5 -28 23 -50 48 -35 90 -55 136 -62 34 -5 41 -10 35 -23
-17 -41 -15 -46 26 -63 22 -10 40 -21 40 -24 0 -10 -41 -56 -92 -102 l-46 -43
-57 28 c-48 24 -55 31 -50 50 6 27 -10 31 -23 6 -9 -15 -13 -15 -56 3 -50 20
-51 25 -34 93 1 7 -2 15 -8 18 -7 2 -14 -6 -18 -19 -12 -46 -20 -51 -60 -34
-28 12 -36 21 -36 40 0 19 -5 26 -20 26 -25 0 -40 28 -33 62 3 18 -1 32 -16
47 -31 31 -40 26 -38 -19 1 -26 -5 -46 -15 -57 -16 -15 -21 -14 -72 8 -64 28
-67 38 -32 107 54 107 118 123 308 77z m-2809 -136 c25 -11 45 -40 48 -69 4
-45 1 -47 -76 -53 -96 -7 -144 -30 -169 -80 -17 -36 -17 -40 -1 -82 9 -24 33
-60 53 -80 47 -46 99 -60 167 -47 43 9 56 8 90 -8 52 -25 120 -94 112 -113
-12 -31 -116 -59 -257 -67 -118 -8 -137 -12 -152 -30 -20 -24 -31 -25 -52 -4
-23 22 -20 48 10 84 l27 31 -56 50 c-62 55 -107 135 -107 188 0 38 30 114 49
125 6 4 11 16 11 26 0 14 10 21 36 26 20 4 57 25 87 51 69 58 129 76 180 52z
m3598 -14 c91 -66 111 -78 141 -84 19 -4 33 -13 33 -21 1 -8 13 -36 28 -61 53
-90 32 -177 -67 -274 l-62 -61 29 -40 c30 -43 29 -62 -5 -83 -19 -12 -23 -11
-37 7 -19 24 -47 30 -176 36 -89 5 -144 17 -227 51 -28 11 -21 29 26 73 66 61
80 66 190 67 l98 0 49 53 c59 64 71 109 43 161 -25 47 -61 63 -159 70 l-80 6
-3 36 c-7 81 102 120 179 64z m-3986 -342 c9 -21 29 -55 46 -76 l30 -37 -23
-30 c-13 -16 -31 -29 -40 -29 -15 -1 -118 91 -118 106 0 6 80 103 86 103 2 0
11 -17 19 -37z m4310 -9 c19 -26 35 -51 35 -55 0 -9 -83 -89 -107 -103 -11 -6
-22 0 -39 20 -29 36 -29 38 1 78 13 18 31 49 40 69 8 20 20 37 25 37 5 0 25
-21 45 -46z m-4470 -64 c-5 -14 -2 -20 10 -20 9 0 41 -24 71 -53 34 -34 69
-58 95 -66 44 -13 89 -51 89 -74 0 -7 -15 -21 -32 -29 l-33 -16 38 -16 c38
-17 77 -66 77 -99 0 -12 -10 -20 -30 -24 -41 -8 -33 -25 18 -42 50 -15 81 -10
118 22 l26 23 -31 31 c-38 38 -40 75 -6 108 35 36 79 33 120 -8 54 -54 57
-144 6 -209 -60 -76 -232 -113 -320 -68 -24 12 -44 20 -44 18 -24 -48 -52 -53
-97 -18 -14 11 -35 24 -46 29 -12 5 -32 26 -44 47 -22 34 -24 35 -37 18 -7
-10 -13 -24 -13 -31 0 -23 -35 -14 -64 15 -14 16 -31 46 -37 66 -12 42 -26 43
-49 0 -9 -16 -25 -33 -36 -38 -11 -5 -33 -32 -50 -60 -37 -63 -69 -73 -87 -27
l-11 31 -64 -6 -63 -7 11 27 c5 15 22 48 36 72 22 37 25 49 16 69 -12 26 -7
35 19 35 19 0 79 46 79 61 0 5 -11 14 -24 21 -40 18 -41 39 -4 70 25 21 55 31
128 44 115 20 139 30 209 83 30 23 56 41 58 41 3 0 1 -9 -2 -20z m4631 -25
c67 -46 104 -60 201 -75 63 -11 139 -44 147 -65 8 -23 -2 -41 -32 -55 l-27
-12 37 -34 c21 -19 47 -34 58 -34 22 0 27 -19 9 -37 -7 -7 0 -29 25 -75 20
-36 36 -70 36 -77 0 -10 -16 -11 -65 -6 -61 7 -65 6 -65 -13 0 -25 -25 -46
-45 -38 -8 3 -31 30 -50 60 -19 30 -44 57 -55 61 -11 3 -23 17 -26 30 -9 36
-32 52 -40 29 -18 -57 -30 -79 -53 -100 -34 -32 -50 -30 -62 6 -6 17 -14 30
-19 30 -4 0 -19 -18 -34 -40 -14 -22 -31 -40 -36 -40 -5 0 -26 -11 -46 -25
-35 -24 -84 -34 -84 -17 0 4 -4 13 -8 20 -7 10 -18 8 -53 -7 -106 -49 -272 -2
-330 93 -39 64 -19 177 37 206 84 46 168 -55 99 -120 -34 -32 -32 -43 13 -67
32 -19 43 -20 84 -12 26 6 52 17 59 25 9 11 6 15 -20 20 -26 5 -31 11 -31 34
0 30 50 90 75 90 26 0 26 20 0 32 -20 9 -25 18 -23 37 2 21 16 32 68 58 36 17
87 52 112 77 26 25 55 46 64 46 11 0 15 6 11 20 -3 11 -3 20 -1 20 3 0 34 -20
70 -45z m-3110 -211 c24 -24 26 -30 22 -105 -4 -89 -16 -109 -70 -109 -50 0
-68 30 -68 115 0 67 3 79 25 100 31 32 59 32 91 -1z m932 10 c24 -17 30 -54 8
-54 -7 0 -16 9 -19 20 -6 23 -39 27 -56 6 -18 -22 2 -53 39 -61 56 -12 78 -77
40 -115 -40 -40 -120 -16 -120 37 0 30 28 31 32 1 4 -32 63 -39 73 -9 9 29 0
40 -50 61 -25 11 -46 27 -50 40 -21 65 46 114 103 74z m182 -10 c24 -23 21
-165 -4 -193 -28 -31 -81 -28 -102 4 -37 57 -25 187 19 205 27 11 67 4 87 -16z
m735 14 c32 -14 42 -58 37 -155 -4 -69 -81 -98 -121 -47 -17 21 -21 41 -21 96
0 60 3 72 25 93 27 28 42 30 80 13z m-2165 -17 c16 -30 12 -76 -7 -94 -10 -8
-31 -17 -48 -19 -28 -3 -30 -6 -32 -47 -3 -49 -7 -56 -22 -46 -7 4 -11 49 -11
116 l0 109 55 0 c43 0 56 -4 65 -19z m147 11 c22 -14 27 -67 7 -86 -14 -14
-14 -20 -4 -26 7 -4 15 -31 18 -59 4 -42 2 -51 -11 -51 -11 0 -18 14 -23 48
-7 48 -17 62 -46 62 -13 0 -18 -11 -20 -52 -2 -28 -8 -53 -15 -55 -8 -3 -13
22 -15 84 -5 143 -5 143 50 143 26 0 53 -4 59 -8z m263 -74 c12 -46 23 -84 25
-86 1 -1 12 36 25 83 18 65 27 85 40 85 16 0 14 -11 -14 -112 -26 -94 -35
-113 -51 -113 -20 0 -19 -1 -64 158 -19 64 -19 67 -1 67 14 0 23 -18 40 -82z
m248 70 c-2 -6 -22 -12 -44 -12 -37 -1 -39 -3 -42 -33 -3 -33 -3 -33 42 -33
34 0 46 -4 46 -15 0 -11 -12 -15 -45 -15 l-45 0 0 -40 0 -40 51 0 c76 0 59
-24 -19 -28 l-62 -3 0 116 0 115 61 0 c42 0 59 -4 57 -12z m72 -33 c0 -45 0
-45 35 -45 35 0 35 0 35 45 0 33 4 45 15 45 12 0 15 -19 15 -115 0 -96 -3
-115 -15 -115 -12 0 -15 13 -15 55 l0 55 -34 0 -35 0 -3 -52 c-2 -39 -7 -53
-18 -53 -12 0 -16 20 -18 113 -3 107 -2 112 18 112 17 0 20 -6 20 -45z m170
-71 c0 -88 -3 -115 -12 -112 -9 3 -14 38 -16 116 -2 95 0 112 13 112 13 0 15
-18 15 -116z m163 101 c-2 -5 -13 -10 -25 -10 -22 0 -23 -4 -28 -99 -3 -65 -9
-101 -17 -103 -9 -3 -13 23 -15 99 -2 83 -6 103 -18 104 -8 1 -21 2 -27 3 -7
0 -13 6 -13 11 0 7 27 10 73 8 41 -2 71 -7 70 -13z m448 -67 c1 -46 2 -90 3
-98 1 -11 15 -16 49 -18 72 -5 56 -27 -19 -27 l-59 0 -3 113 c-2 95 0 112 13
112 12 0 15 -16 16 -82z m149 -33 c0 -96 -3 -115 -15 -115 -12 0 -15 19 -15
115 0 96 3 115 15 115 12 0 15 -19 15 -115z m132 18 l3 -98 48 -3 c72 -5 56
-27 -19 -27 l-59 0 -3 113 c-2 94 0 112 12 112 12 0 16 -19 18 -97z m238 82
c0 -10 -11 -14 -42 -12 -42 2 -43 1 -46 -30 -3 -33 -3 -33 42 -33 34 0 46 -4
46 -15 0 -11 -12 -15 -45 -15 l-45 0 0 -40 0 -40 51 0 c76 0 59 -24 -19 -28
l-62 -3 0 116 0 115 60 0 c46 0 60 -3 60 -15z m-3391 -256 c31 -36 34 -47 41
-127 4 -48 11 -97 15 -109 6 -18 3 -23 -19 -29 -14 -3 -26 -8 -26 -10 0 -2 10
-22 22 -45 12 -24 25 -67 29 -96 4 -30 16 -71 27 -93 12 -25 16 -44 10 -54
-13 -24 -3 -34 66 -66 65 -31 126 -97 126 -138 0 -37 -76 -82 -139 -82 -38 0
-40 -2 -47 -35 l-6 -35 -62 0 c-40 0 -69 6 -84 16 -27 19 -52 12 -52 -14 0
-27 20 -42 57 -42 18 0 37 -6 42 -12 5 -7 29 -34 52 -60 l41 -48 -32 -30 c-19
-18 -48 -33 -71 -36 -22 -4 -39 -10 -39 -14 0 -10 72 -30 108 -30 17 0 34 -5
38 -11 3 -6 21 -9 39 -7 l33 4 5 -66 c4 -59 3 -67 -19 -87 l-24 -22 58 -35
c32 -19 66 -44 77 -56 17 -19 17 -21 0 -40 -17 -19 -17 -22 4 -83 11 -35 21
-69 21 -75 0 -21 -98 -14 -141 10 -32 18 -41 19 -54 8 -14 -11 -22 -7 -62 31
-25 24 -52 60 -60 79 -14 32 -16 33 -29 16 -7 -10 -15 -24 -17 -29 -6 -20 -36
2 -52 39 -8 20 -18 64 -22 98 -8 60 -8 61 -38 57 -16 -1 -42 -14 -58 -27 -46
-39 -109 -31 -164 19 -29 26 -29 37 -2 37 29 0 77 54 89 101 14 51 5 65 -26
45 -13 -9 -32 -16 -44 -16 -19 0 -20 6 -20 134 l0 134 -32 20 -32 20 -35 -24
c-46 -31 -61 -30 -61 4 0 60 28 131 87 219 56 84 91 158 80 169 -2 2 -28 -1
-56 -7 -29 -6 -55 -8 -58 -5 -9 8 45 153 73 197 13 21 53 75 90 120 36 45 71
92 77 106 8 18 16 23 31 18 62 -19 66 -18 106 25 22 24 40 49 40 56 0 11 48
54 60 53 3 0 20 -18 39 -40z m4942 31 c10 -6 28 -28 39 -49 34 -67 104 -103
137 -70 8 8 27 -11 68 -68 32 -43 70 -91 85 -108 15 -16 37 -47 49 -67 27 -45
81 -197 72 -202 -3 -2 -30 1 -59 6 -29 6 -55 8 -58 5 -10 -9 31 -91 86 -172
29 -42 59 -93 66 -113 13 -37 19 -132 8 -132 -3 0 -25 12 -49 26 -43 25 -45
25 -69 7 -24 -17 -25 -22 -28 -153 -3 -128 -4 -135 -24 -138 -11 -2 -27 4 -34
13 -36 43 -54 -8 -24 -68 24 -48 43 -65 77 -73 l32 -7 -39 -33 c-59 -51 -118
-56 -162 -16 -11 10 -33 21 -50 25 l-31 6 -11 -65 c-11 -69 -39 -135 -59 -142
-7 -2 -18 8 -24 22 -15 32 -25 33 -35 4 -3 -12 -27 -43 -52 -70 -38 -41 -50
-48 -72 -43 -14 3 -39 -1 -57 -10 -41 -20 -128 -31 -137 -17 -3 6 5 41 19 78
l25 67 -20 22 -20 21 28 26 c15 14 47 37 72 51 51 28 59 42 31 50 -18 4 -20
13 -19 82 l1 77 33 -5 c19 -3 36 -1 39 4 4 5 17 9 31 9 43 0 115 22 111 34 -2
6 -20 14 -41 17 -37 6 -86 43 -86 64 0 6 14 24 31 41 17 16 35 39 40 52 6 17
16 22 43 22 18 0 43 8 55 18 19 15 20 20 9 35 -12 16 -16 17 -49 3 -22 -9 -57
-14 -90 -11 -50 3 -54 5 -62 34 -6 26 -12 31 -38 31 -59 0 -149 53 -149 88 0
34 66 103 133 139 61 32 68 39 62 60 -3 13 2 37 10 54 9 17 21 58 26 91 5 33
19 78 30 101 17 32 18 41 7 48 -7 5 -16 9 -20 9 -7 0 -2 120 8 187 4 30 60
111 77 112 5 1 17 -4 28 -9z m-4786 -90 c3 -5 13 -10 22 -10 8 0 26 -9 40 -20
31 -24 99 -27 123 -5 15 14 23 10 86 -40 38 -30 80 -58 92 -62 l24 -6 -7 -551
c-3 -303 -8 -566 -11 -584 -8 -49 -74 -117 -135 -137 -27 -9 -54 -15 -61 -13
-18 6 -17 99 2 106 8 3 27 16 43 30 49 46 29 147 -33 167 -20 6 -20 17 -20
437 l0 430 -64 70 c-54 59 -126 169 -126 192 0 10 18 7 25 -4z m4585 4 c0 -25
-75 -138 -128 -193 l-63 -66 5 -428 5 -428 -22 -8 c-35 -14 -58 -46 -64 -91
-5 -39 -3 -43 41 -84 42 -40 46 -47 46 -91 l0 -47 -32 7 c-60 13 -127 54 -153
94 -29 44 -30 48 -40 817 l-4 370 37 17 c20 9 60 37 89 62 56 49 64 52 83 30
19 -23 64 -18 127 15 59 30 73 35 73 24z m-730 -1467 c0 -1500 0 -1515 -55
-1701 -47 -163 -117 -290 -220 -404 -118 -129 -256 -204 -510 -276 -323 -91
-605 -196 -727 -271 -31 -19 -58 -35 -61 -35 -3 0 -32 16 -64 35 -133 78 -380
171 -721 270 -208 60 -309 104 -409 179 -206 155 -340 420 -373 737 -11 112
-15 2831 -3 2842 3 4 712 7 1575 7 l1568 0 0 -1383z m646 324 c22 -45 13 -106
-19 -139 -23 -22 -28 -23 -61 -12 -49 16 -66 35 -66 74 0 37 12 51 52 61 20 5
28 15 32 41 6 30 9 32 26 21 11 -6 27 -27 36 -46z m-4374 17 c2 -28 8 -34 33
-38 18 -3 35 -15 44 -32 21 -36 3 -71 -48 -97 l-40 -21 -29 25 c-38 32 -48 81
-27 131 14 34 40 63 57 64 4 0 8 -15 10 -32z m319 -59 c64 -127 6 -291 -127
-354 -30 -14 -77 -29 -104 -32 -47 -5 -50 -4 -60 21 -27 72 -27 72 37 85 82
16 156 61 188 114 21 36 25 56 25 119 0 65 4 88 16 88 2 0 13 -19 25 -41z
m3711 -47 c3 -79 6 -93 31 -125 35 -46 103 -86 174 -103 30 -7 58 -15 61 -19
3 -3 -1 -25 -10 -48 -15 -40 -17 -42 -54 -40 -193 13 -324 213 -245 376 12 26
26 47 31 47 4 0 10 -40 12 -88z m810 -157 c4 -5 8 -45 8 -87 0 -103 17 -220
41 -280 24 -62 24 -66 -3 -70 -19 -2 -26 -16 -43 -75 -11 -40 -23 -75 -28 -79
-4 -4 -21 6 -38 22 -21 19 -33 25 -36 17 -14 -40 -63 25 -63 83 0 33 -11 30
-39 -11 -32 -47 -39 -153 -17 -247 16 -70 13 -98 -10 -98 -7 0 -16 -10 -18
-22 -19 -92 -23 -103 -36 -103 -8 0 -26 21 -39 48 -18 36 -29 47 -47 47 -69 0
-119 -233 -94 -430 15 -118 33 -172 77 -233 32 -46 33 -51 22 -85 -17 -53 -17
-53 -48 -37 -39 20 -78 68 -91 113 -17 53 -26 685 -11 737 7 26 7 41 1 43 -18
6 -11 95 9 129 21 34 19 43 -12 43 -37 0 -5 119 42 158 14 11 14 14 -6 28 -31
22 -29 33 13 77 52 54 81 71 123 69 31 -2 44 5 89 48 42 40 57 49 76 44 49
-12 85 28 106 122 19 81 18 79 43 58 12 -11 25 -23 29 -29z m-5299 -31 c9 -36
26 -79 38 -96 20 -27 26 -30 60 -25 22 3 39 2 39 -2 0 -4 25 -28 56 -53 46
-40 60 -46 85 -41 32 6 79 -23 131 -82 34 -37 34 -39 2 -60 l-25 -16 25 -26
c45 -45 61 -141 25 -150 -14 -4 -18 -11 -13 -22 37 -88 44 -141 18 -141 -12 0
-13 -5 -7 -22 4 -13 8 -185 8 -383 0 -346 -1 -362 -21 -406 -20 -43 -77 -99
-101 -99 -6 0 -18 20 -27 45 -17 43 -17 45 4 67 62 67 88 152 97 318 7 137 -7
232 -45 310 -37 76 -62 79 -97 11 -34 -69 -51 -66 -67 11 -9 43 -18 62 -30 66
-22 5 -22 22 -3 131 17 94 12 149 -18 203 -27 49 -47 57 -47 17 0 -16 -7 -45
-15 -65 -13 -31 -16 -33 -34 -22 -17 10 -24 9 -43 -8 -41 -38 -46 -37 -58 6
-5 22 -15 58 -20 80 -6 22 -16 40 -23 40 -34 1 -36 16 -11 84 19 52 27 101 34
214 9 131 12 149 31 165 12 9 25 17 29 17 4 0 14 -30 23 -66z m702 -868 l-8
-734 26 -34 c96 -125 147 -375 115 -558 -13 -72 -12 -77 10 -120 31 -58 25
-134 -13 -192 l-26 -39 -22 27 c-12 15 -31 46 -42 68 -14 30 -29 43 -52 50
-17 4 -47 25 -66 45 l-35 36 20 75 c16 61 19 97 15 195 -5 142 -25 207 -92
310 l-45 68 0 716 c0 543 3 723 12 743 10 21 21 27 64 31 28 3 69 14 90 26 22
11 43 20 48 21 4 0 5 -325 1 -734z m3905 705 c30 -11 67 -20 82 -21 17 0 31
-8 38 -19 7 -13 10 -264 10 -745 l0 -725 -38 -58 c-51 -78 -78 -144 -93 -228
-14 -81 -7 -206 16 -296 l16 -62 -35 -35 c-19 -20 -50 -40 -68 -46 -23 -8 -39
-23 -53 -52 -11 -22 -28 -51 -37 -64 -17 -23 -18 -23 -38 -5 -21 19 -50 101
-50 140 0 12 11 44 25 71 23 46 24 53 14 107 -7 34 -10 108 -6 185 6 149 33
247 98 351 l40 64 0 441 c-1 243 -4 573 -8 735 -6 287 -6 294 13 288 10 -3 44
-15 74 -26z m708 -1006 c40 -17 73 -45 104 -88 23 -32 17 -82 -11 -90 -14 -3
-20 -19 -25 -63 -9 -81 -39 -138 -89 -173 -45 -30 -137 -57 -164 -47 -14 6
-14 8 3 21 10 8 30 15 45 15 48 0 124 47 148 91 31 54 42 169 17 169 -9 0 -16
-4 -16 -8 0 -5 -11 -14 -25 -20 -78 -36 -155 9 -155 90 0 49 20 79 65 102 38
20 56 20 103 1z m-5289 -10 c28 -14 61 -68 61 -100 0 -32 -32 -77 -66 -91 -39
-16 -75 -11 -116 18 -25 17 -27 17 -32 1 -10 -30 12 -132 34 -163 29 -41 66
-68 103 -75 93 -19 130 -45 63 -45 -42 0 -108 23 -148 51 -35 26 -78 110 -78
156 0 43 -16 83 -34 83 -8 0 -17 13 -21 30 -5 23 -1 37 20 64 25 33 61 63 95
78 27 12 90 8 119 -7z m-259 -182 c0 -20 4 -23 20 -18 17 6 20 2 20 -30 0
-140 87 -232 240 -255 105 -17 111 -20 65 -37 -69 -25 -186 7 -262 71 -57 48
-102 161 -117 291 l-6 50 20 -24 c11 -13 20 -34 20 -48z m5735 50 c-4 -10 -11
-43 -15 -74 -28 -214 -173 -342 -355 -315 -51 8 -57 29 -9 33 191 12 294 101
294 252 0 37 2 42 19 36 15 -4 20 1 25 26 7 35 23 59 38 59 6 0 7 -8 3 -17z
m-5280 -237 c22 -22 51 -104 75 -210 10 -44 9 -53 -8 -75 -14 -19 -28 -26 -53
-26 l-34 0 -6 80 c-7 86 -24 137 -58 172 -29 31 -26 47 12 66 43 21 44 21 72
-7z m4863 4 l33 -20 -32 -41 c-37 -47 -59 -120 -59 -196 0 -44 -3 -53 -21 -58
-29 -9 -68 13 -75 42 -8 32 1 87 30 179 37 115 60 133 124 94z m-4660 -105
c12 -3 22 -13 22 -22 0 -9 15 -37 34 -63 19 -27 44 -67 56 -89 19 -38 19 -44
6 -70 -17 -33 -34 -41 -82 -41 -24 0 -43 8 -59 25 -30 29 -30 37 -6 92 21 45
16 53 -30 53 -19 0 -31 21 -45 75 -5 19 0 27 23 39 15 8 35 13 43 11 8 -2 25
-6 38 -10z m4457 3 c24 -11 26 -16 20 -47 -10 -53 -23 -71 -50 -71 -32 0 -38
-12 -20 -46 23 -44 19 -80 -11 -103 -37 -29 -89 -27 -119 4 -36 35 -31 63 25
149 28 42 50 83 50 90 0 8 12 19 28 24 37 14 47 14 77 0z m-4720 -131 c4 -26
0 -74 -9 -121 -19 -88 -12 -135 29 -198 21 -31 22 -38 9 -48 -12 -11 -11 -19
12 -57 20 -35 23 -47 14 -58 -10 -12 -8 -16 7 -22 11 -5 41 -27 66 -49 41 -36
45 -43 32 -54 -15 -13 -102 -9 -167 6 -27 6 -28 5 -28 -33 0 -28 6 -45 23 -59
43 -39 79 -56 132 -61 49 -5 54 -4 70 21 24 36 46 47 128 62 76 15 97 27 97
55 0 27 12 24 45 -11 16 -16 36 -30 45 -30 38 0 56 -64 25 -90 -25 -20 -17
-30 23 -30 46 0 55 -6 41 -31 -8 -16 -6 -19 17 -19 33 0 82 50 112 114 26 54
29 131 8 181 -18 42 -9 45 26 8 35 -38 68 -106 68 -141 0 -87 -73 -203 -171
-271 -40 -28 -78 -51 -84 -51 -7 0 -15 -9 -18 -19 -11 -43 -165 -65 -247 -36
-87 31 -120 8 -57 -39 25 -18 42 -21 136 -21 101 0 110 2 175 34 55 27 70 31
77 20 5 -8 9 -20 9 -26 0 -9 18 -13 58 -13 32 0 66 -6 76 -13 17 -13 17 -16 2
-44 -17 -34 -61 -73 -82 -73 -8 0 -14 -5 -14 -11 0 -20 144 -2 214 26 73 29
122 32 171 8 34 -16 35 -16 72 13 55 44 61 46 83 34 24 -13 26 -37 3 -62 -20
-23 -12 -32 22 -24 28 7 64 38 83 71 10 18 14 18 32 7 12 -7 23 -12 24 -10 13
15 26 81 26 127 0 93 -44 142 -143 160 l-42 7 34 18 c42 22 111 17 150 -11 14
-11 42 -42 61 -69 32 -44 35 -54 35 -119 0 -38 -4 -86 -8 -107 -8 -33 -7 -37
19 -50 39 -18 44 -48 9 -48 -38 0 -80 -25 -111 -66 -15 -19 -47 -49 -71 -65
-25 -17 -43 -38 -43 -49 0 -10 -11 -28 -26 -39 l-25 -20 30 -41 c39 -54 45
-87 26 -133 -8 -20 -15 -56 -15 -80 0 -24 -6 -52 -14 -62 -13 -18 -14 -15 -14
31 -1 31 -11 77 -28 118 -33 83 -120 176 -211 224 -67 35 -195 72 -251 72
l-34 0 37 -41 c43 -48 74 -112 75 -153 0 -28 0 -28 -47 -22 -64 9 -83 15 -83
27 0 5 -7 9 -15 9 -11 0 -15 -11 -15 -38 0 -21 -3 -41 -6 -44 -7 -7 -89 28
-125 53 -14 10 -41 51 -61 91 -20 41 -43 80 -52 87 -14 12 -16 8 -16 -43 0
-43 -5 -61 -20 -76 -35 -35 -57 -26 -73 28 -26 87 -59 143 -116 196 -31 29
-96 91 -145 137 l-89 84 6 -60 c3 -33 2 -67 -3 -75 -7 -10 -10 -11 -10 -2 0
24 -29 11 -50 -23 -12 -19 -25 -35 -29 -35 -21 0 -91 107 -91 140 0 30 -16 43
-38 31 -17 -9 -23 -7 -36 11 -13 18 -15 42 -10 133 7 111 -9 302 -28 338 -8
15 -14 11 -47 -30 -21 -27 -49 -54 -64 -62 -36 -19 -75 -7 -83 26 -6 21 -2 30
22 47 54 39 84 80 106 146 70 212 162 403 230 476 35 38 99 68 120 57 4 -2 10
-23 13 -46z m4998 31 c57 -30 154 -205 242 -438 57 -152 73 -180 126 -214 33
-22 39 -31 33 -49 -9 -32 -20 -40 -53 -40 -33 0 -78 33 -110 81 -11 17 -25 32
-30 32 -17 0 -36 -166 -37 -320 -1 -199 3 -183 -39 -176 -29 6 -35 4 -35 -11
0 -26 -49 -119 -77 -145 -23 -21 -25 -22 -34 -5 -18 31 -58 72 -59 60 0 -7 -5
-13 -11 -13 -8 0 -10 21 -7 65 3 36 3 65 0 65 -3 0 -42 -35 -87 -77 -44 -43
-102 -97 -129 -121 -59 -54 -101 -119 -123 -192 -21 -65 -27 -71 -63 -58 -31
10 -46 57 -35 109 4 16 2 29 -3 29 -15 0 -38 -32 -71 -100 -35 -71 -54 -90
-120 -120 -58 -26 -71 -21 -71 30 0 22 -4 40 -10 40 -5 0 -10 -4 -10 -9 0 -13
-49 -30 -95 -33 l-40 -2 2 37 c3 43 43 118 79 146 24 19 32 41 15 41 -5 0 -45
-7 -90 -15 -230 -44 -401 -206 -421 -399 -6 -68 -16 -56 -25 33 -3 29 -12 66
-21 82 -18 35 -13 57 27 117 l29 44 -25 30 c-14 16 -25 36 -25 44 0 7 -12 20
-27 28 -16 8 -54 41 -85 74 -45 48 -65 61 -98 67 -48 8 -48 23 -2 45 17 8 30
20 27 27 -15 43 -27 134 -21 165 9 48 62 126 105 155 39 27 111 30 151 8 27
-15 23 -18 -39 -29 -48 -9 -97 -49 -111 -92 -13 -40 -9 -121 9 -168 11 -27 13
-28 30 -12 24 22 26 21 50 -19 11 -20 36 -42 53 -50 41 -17 59 -4 33 25 -41
46 27 80 74 38 54 -49 58 -51 83 -35 47 30 83 30 175 -1 97 -33 213 -51 213
-33 0 6 -15 17 -32 24 -20 9 -42 30 -55 54 -29 52 -19 61 71 70 55 5 66 9 66
24 0 28 18 32 46 10 45 -36 123 -55 219 -56 94 0 138 15 152 51 11 30 -12 34
-87 13 -68 -19 -81 -20 -144 -9 -51 9 -76 19 -95 39 -14 14 -38 33 -53 41 -47
26 -138 95 -138 104 0 5 -11 23 -24 41 -64 83 -74 182 -28 256 50 78 85 93 56
23 -40 -94 33 -267 116 -276 22 -3 25 0 22 26 -3 28 -3 29 37 22 46 -7 58 3
30 27 -32 28 -22 87 14 87 12 0 35 14 53 31 33 32 54 32 54 0 0 -19 16 -25
138 -52 37 -8 58 -18 69 -36 9 -14 28 -29 41 -34 36 -14 126 15 168 54 30 28
33 36 28 68 l-6 37 -57 -15 c-55 -15 -125 -13 -142 4 -8 8 84 95 114 106 9 4
9 8 -2 15 -11 8 -8 18 14 56 21 35 24 50 16 60 -9 10 -4 27 20 72 28 53 30 65
25 119 -23 221 -22 230 26 220 18 -4 41 -12 51 -17z m-928 -819 c10 -19 25
-42 34 -52 15 -18 7 -27 -142 -173 l-158 -155 -35 30 c-19 17 -38 31 -42 32
-4 0 -45 2 -92 5 -49 3 -88 10 -92 17 -11 18 -9 96 3 119 17 32 86 57 159 58
l65 1 135 121 135 122 6 -45 c4 -25 15 -61 24 -80z m-3063 -6 l130 -117 71 -1
c122 -2 170 -43 165 -137 l-3 -53 -100 -5 c-90 -5 -104 -8 -137 -33 l-36 -28
-84 78 c-45 42 -88 82 -94 88 -6 5 -38 36 -72 67 l-60 58 28 52 c16 29 34 74
40 101 7 26 14 47 17 47 2 0 63 -53 135 -117z m2353 -160 c-13 -34 -18 -141
-7 -173 11 -29 9 -33 -33 -75 l-45 -44 -58 21 c-79 29 -277 31 -371 3 l-64
-18 -29 31 c-15 18 -28 44 -28 58 0 42 39 100 79 118 88 40 243 55 370 37 49
-7 58 -5 115 25 70 38 81 41 71 17z m-1739 -23 c58 -29 61 -29 144 -20 97 11
216 1 298 -26 105 -34 148 -131 87 -193 l-24 -24 -88 18 c-54 12 -123 19 -178
18 -79 -1 -117 -8 -212 -38 -18 -6 -31 1 -62 32 l-39 40 5 90 c4 58 2 97 -6
111 -16 31 2 29 75 -8z m1204 0 c0 -4 -11 -10 -23 -14 -62 -15 -117 -94 -117
-167 0 -35 6 -48 39 -80 40 -41 61 -46 107 -29 33 13 39 8 23 -18 -57 -91
-243 -15 -264 107 -11 67 33 163 89 193 42 23 146 28 146 8z m-643 4 c63 -12
133 -105 133 -176 0 -71 -34 -124 -102 -159 -60 -30 -148 -20 -163 19 -9 23 3
27 37 14 22 -8 36 -8 52 0 66 33 95 94 76 156 -18 55 -53 96 -99 116 -22 11
-38 23 -35 27 6 10 58 12 101 3z m237 -213 c25 -28 32 -27 73 9 38 34 53 32
53 -6 0 -32 31 -93 64 -123 l26 -25 -33 -35 c-49 -52 -84 -102 -122 -172 l-33
-63 -15 36 c-20 47 -80 134 -130 186 l-42 42 36 33 c44 39 69 85 69 127 0 26
3 29 18 21 9 -5 26 -19 36 -30z m762 -67 c28 -7 57 -21 64 -29 7 -9 19 -74 26
-144 14 -129 26 -181 42 -181 5 0 17 25 28 56 22 65 36 75 68 45 12 -11 32
-21 43 -21 16 0 32 -20 68 -86 38 -71 47 -97 49 -145 2 -65 20 -93 73 -115 34
-15 83 -19 83 -7 0 4 -10 17 -21 29 -47 50 -29 147 35 189 34 23 99 30 134 16
33 -14 62 -58 62 -95 0 -70 -93 -184 -185 -227 -51 -25 -73 -29 -142 -29 -130
0 -167 13 -345 116 -247 144 -320 178 -394 182 -45 3 -72 -1 -100 -14 -51 -24
-107 -82 -129 -132 -23 -52 -61 -62 -128 -32 -43 19 -47 23 -41 48 3 15 16 49
30 77 20 42 21 51 9 58 -8 4 -15 15 -15 23 0 17 44 89 60 99 6 4 8 15 5 24 -4
14 4 21 34 31 38 12 39 14 38 58 0 33 5 49 18 58 30 22 55 18 55 -11 0 -31 52
-48 105 -34 30 9 35 14 35 39 0 35 3 35 61 15 77 -26 90 -38 125 -107 19 -37
45 -75 59 -84 51 -33 90 14 57 70 -9 16 -43 50 -75 75 -58 46 -97 94 -97 120
0 10 10 12 45 7 50 -8 57 2 29 43 -30 42 19 47 132 15z m-1316 9 c-1 -5 -7
-19 -15 -33 -21 -38 -19 -41 28 -38 36 3 42 0 45 -18 2 -16 -19 -41 -82 -99
-89 -81 -102 -100 -92 -141 15 -58 90 -11 131 83 25 56 65 85 138 98 34 7 37
6 37 -17 0 -17 8 -29 25 -36 54 -25 109 -9 117 33 5 27 33 30 57 6 15 -15 21
-34 21 -65 0 -42 1 -44 36 -51 30 -5 35 -10 31 -27 -4 -13 3 -29 19 -45 13
-13 31 -38 40 -54 15 -29 14 -32 -5 -46 -21 -14 -21 -15 -2 -39 17 -22 49
-122 40 -127 -75 -41 -90 -45 -121 -35 -26 8 -39 21 -58 61 -29 59 -91 111
-152 127 -88 24 -178 -10 -428 -159 -156 -94 -210 -119 -285 -132 -134 -23
-237 4 -326 88 -114 107 -125 234 -22 262 43 12 107 -1 137 -27 52 -47 62
-132 20 -181 l-26 -31 37 0 c39 0 83 19 105 46 8 9 17 46 21 83 5 52 15 82 50
146 25 45 51 80 59 80 8 -1 30 10 48 23 19 13 37 20 42 16 4 -5 17 -34 28 -64
11 -30 24 -54 28 -53 15 2 33 80 43 191 5 59 13 115 17 125 12 31 215 78 214
50z m660 -692 c17 -12 32 -15 45 -10 35 14 75 9 93 -10 61 -67 62 -68 62 -120
0 -39 -4 -53 -17 -58 -9 -4 -27 -18 -39 -32 -17 -20 -30 -25 -61 -24 -25 1
-58 -7 -88 -23 -61 -30 -80 -30 -139 1 -26 14 -60 25 -75 25 -16 0 -37 10 -51
25 -13 14 -30 25 -37 25 -17 0 -33 41 -33 86 0 27 9 44 39 74 40 40 67 48 101
30 14 -8 30 -4 67 16 53 28 90 27 133 -5z m-2730 -1347 c87 -20 194 -74 258
-130 86 -75 88 -68 -44 -186 -64 -56 -120 -104 -125 -106 -5 -2 -28 15 -50 37
-61 59 -119 84 -198 85 -91 1 -141 -17 -193 -67 -107 -102 -108 -315 -2 -421
100 -100 280 -93 391 16 22 22 46 39 51 37 12 -5 199 -168 226 -198 19 -21 19
-22 -20 -62 -56 -58 -133 -106 -227 -142 -81 -31 -85 -32 -252 -32 -160 1
-174 2 -244 28 -106 39 -157 71 -236 151 -110 111 -165 247 -165 411 0 361
294 621 675 599 50 -3 119 -12 155 -20z m2170 11 c104 -14 238 -53 273 -79 17
-13 16 -18 -16 -97 -86 -209 -81 -203 -137 -174 -59 30 -182 57 -265 57 -116
0 -172 -32 -144 -83 14 -26 33 -33 215 -73 304 -68 414 -161 414 -351 0 -182
-122 -314 -341 -371 -103 -27 -316 -23 -455 9 -108 25 -244 77 -244 94 0 5 8
27 19 49 10 21 35 77 56 124 21 47 42 90 46 96 6 8 27 3 68 -17 92 -44 206
-69 313 -69 106 0 142 13 146 51 4 36 -29 56 -136 80 -210 49 -246 60 -305 88
-79 38 -133 90 -165 159 -22 48 -24 64 -20 145 3 70 10 102 27 136 66 126 199
206 385 230 94 13 152 12 266 -4z m-792 -162 c2 -131 1 -143 -15 -144 -10 0
-126 0 -259 0 -132 0 -250 -2 -262 -6 -20 -5 -22 -12 -22 -69 l0 -64 245 0
245 0 0 -140 0 -140 -245 0 -245 0 0 -70 0 -70 288 -2 287 -3 3 -147 3 -148
-481 0 -480 0 -2 548 c-2 301 -2 559 0 575 l3 27 467 -2 467 -3 3 -142z m2180
1 l-3 -146 -270 -1 -270 -2 0 -95 0 -95 238 -3 237 -2 0 -148 0 -147 -237 0
-238 0 -3 -182 -2 -183 -195 0 -195 0 0 575 0 575 470 0 471 0 -3 -146z m869
93 c12 -28 48 -113 81 -187 33 -74 99 -225 146 -335 48 -110 94 -215 103 -234
56 -124 143 -326 143 -333 0 -5 -90 -7 -201 -6 l-201 3 -37 95 -38 95 -217 0
-218 0 -34 -90 c-19 -49 -39 -93 -43 -98 -4 -4 -95 -6 -203 -5 l-195 3 22 50
c28 60 85 191 311 707 l169 388 195 0 195 0 22 -53z m956 -99 c163 -264 267
-433 271 -443 6 -12 11 -5 85 120 32 55 81 137 108 181 28 45 52 85 54 90 2 5
30 53 63 107 l58 97 164 0 164 0 0 -575 0 -575 -180 0 -180 0 0 252 c0 159 -4
248 -9 242 -6 -5 -61 -94 -124 -199 l-113 -190 -88 0 -89 0 -116 187 c-64 103
-119 188 -123 188 -5 0 -8 -108 -8 -240 l0 -240 -175 0 -175 0 0 575 0 575
159 0 159 0 95 -152z m-585 -1163 c75 -32 112 -86 112 -164 0 -125 -78 -194
-220 -195 -117 -1 -194 48 -220 140 -20 69 1 134 57 183 24 22 54 42 66 44 56
11 170 6 205 -8z m-2318 -726 l0 -608 -187 2 -188 2 0 605 0 605 170 5 c94 3
178 3 188 1 16 -3 17 -40 17 -612z m3560 0 l0 -609 -177 2 -178 3 3 33 4 33
-41 -29 c-59 -43 -115 -55 -228 -50 -127 6 -190 30 -272 104 -74 67 -113 138
-135 247 -20 93 -20 142 -2 228 29 133 106 243 213 302 56 30 158 57 218 57
56 0 154 -26 187 -50 15 -11 30 -20 33 -20 3 0 5 81 5 180 l0 180 173 2 c94 2
178 1 185 -1 9 -2 12 -134 12 -612z m-7170 126 l5 -420 258 -3 257 -2 0 -155
0 -155 -452 2 -453 3 -3 565 c-1 311 0 571 3 578 3 10 48 12 192 10 l188 -3 5
-420z m3128 273 l3 -148 -276 0 -275 0 0 -95 0 -95 238 -2 237 -3 3 -147 3
-148 -241 0 -240 0 -2 -182 -3 -183 -190 0 -190 0 -3 578 -2 577 467 -2 468
-3 3 -147z m-1898 -104 c77 -20 120 -43 178 -98 103 -97 125 -203 120 -571
l-3 -230 -175 0 c-168 0 -175 1 -176 20 -1 11 -2 33 -3 48 l-1 28 -30 -34
c-16 -19 -53 -45 -82 -57 -45 -19 -65 -22 -157 -18 -86 3 -115 8 -155 27 -109
53 -159 133 -159 252 0 122 57 197 181 240 55 18 95 23 220 27 135 4 152 6
152 21 0 19 -31 51 -70 72 -54 28 -214 7 -290 -37 -16 -10 -31 -16 -34 -13 -8
8 -104 205 -110 227 -7 20 -1 25 47 47 69 30 146 53 222 65 81 12 245 4 325
-16z m3133 11 c196 -35 333 -148 388 -319 18 -57 21 -85 17 -167 -4 -89 -9
-107 -42 -173 -60 -123 -176 -214 -321 -251 -77 -19 -243 -20 -319 0 -140 37
-266 134 -319 247 -86 182 -49 397 92 532 126 120 306 167 504 131z m1172
-155 l0 -165 -43 3 c-55 4 -142 -14 -167 -36 -11 -9 -29 -30 -40 -47 -18 -27
-20 -52 -25 -270 l-5 -240 -182 -3 -183 -2 0 455 0 455 175 0 175 0 1 -27 c1
-16 1 -34 0 -40 -3 -19 5 -16 59 21 30 21 74 39 108 46 31 7 62 14 67 16 6 1
21 2 35 1 l25 -2 0 -165z m2395 145 c86 -22 134 -48 187 -101 97 -97 115 -184
111 -544 l-3 -255 -170 0 -170 0 -3 43 c-2 23 -5 42 -8 42 -3 0 -22 -16 -42
-35 -50 -47 -108 -65 -213 -65 -116 0 -177 21 -244 82 -62 56 -85 111 -85 200
0 70 19 121 63 166 70 74 171 102 365 102 82 0 132 4 132 10 0 6 -15 27 -34
48 -34 37 -35 37 -124 40 -79 3 -97 1 -153 -23 -35 -14 -71 -29 -80 -31 -11
-4 -29 25 -72 117 -66 140 -69 131 48 173 154 56 351 68 495 31z m-1925 -450
l0 -450 -185 0 -185 0 -3 453 -2 452 187 -2 188 -3 0 -450z m-6557 -1313 l2
-363 -37 3 -38 3 -2 354 c-1 195 0 358 3 363 3 5 20 8 37 6 l32 -3 3 -363z
m4980 352 c53 -37 7 -109 -53 -82 -37 17 -34 76 5 91 23 8 24 8 48 -9z m760 0
c30 -21 29 -59 -3 -80 -54 -35 -115 37 -65 78 27 22 39 23 68 2z m1412 -349
l0 -365 -35 0 -35 0 0 365 0 365 35 0 35 0 0 -365z m238 349 c49 -34 6 -106
-51 -85 -27 10 -45 50 -32 71 6 10 39 27 55 29 3 1 16 -6 28 -15z m632 -349
l0 -365 -35 0 c-34 0 -35 1 -35 41 l0 41 -32 -28 c-48 -40 -90 -54 -161 -54
-138 0 -232 82 -252 221 -23 157 79 286 235 297 61 4 76 1 125 -23 31 -15 59
-33 62 -41 16 -41 23 1 23 131 l0 145 35 0 35 0 0 -365z m1180 0 l0 -365 -35
0 c-35 0 -35 0 -35 44 l0 44 -32 -30 c-46 -43 -87 -58 -163 -58 -78 0 -119 15
-173 65 -113 102 -106 304 14 403 90 74 246 69 327 -12 l27 -27 0 151 0 150
35 0 35 0 0 -365z m-9450 -25 l0 -340 -35 0 -35 0 0 340 0 340 35 0 35 0 0
-340z m3152 220 c37 -63 95 -163 129 -223 33 -59 68 -116 78 -128 16 -20 17
-19 52 43 32 57 142 248 216 373 24 41 35 51 61 53 l32 3 0 -340 0 -341 -35 0
-35 0 -2 263 -3 262 -126 -215 c-147 -250 -155 -256 -202 -168 -16 29 -72 127
-125 217 l-97 164 -3 -262 -2 -261 -35 0 -35 0 0 341 0 340 32 -3 c30 -3 38
-12 100 -118z m-1574 13 c2 -42 7 -53 20 -54 9 0 42 -1 72 -2 54 -2 55 -2 58
-34 l3 -33 -75 0 -76 0 0 -174 0 -175 26 -20 c29 -23 74 -27 106 -10 18 9 24
8 35 -7 19 -26 16 -39 -12 -52 -34 -16 -133 -15 -165 1 -14 6 -35 32 -47 57
-21 41 -23 58 -23 212 l0 168 -45 0 c-43 0 -45 1 -45 30 0 17 3 31 8 31 4 1
23 2 42 3 34 2 35 3 38 47 4 65 8 71 44 67 32 -3 33 -4 36 -55z m-1096 -232
c4 -204 12 -230 81 -262 55 -25 93 -24 147 4 75 37 84 64 90 261 l5 170 33 2
32 2 0 -259 0 -260 -32 3 c-29 3 -34 7 -38 37 -5 31 -6 33 -19 17 -29 -35 -88
-56 -157 -56 -91 0 -145 26 -182 88 -26 46 -27 51 -30 239 l-4 192 35 -1 35
-1 4 -176z m814 164 c73 -22 77 -27 63 -59 -10 -21 -17 -26 -33 -21 -108 35
-136 39 -183 27 -52 -14 -83 -42 -83 -76 0 -40 40 -65 140 -86 100 -22 123
-31 157 -63 53 -48 38 -150 -29 -194 -35 -23 -53 -28 -132 -31 -75 -3 -101 0
-146 17 -83 32 -85 33 -66 68 l15 30 51 -24 c130 -62 286 -26 264 61 -9 36
-22 44 -100 62 -137 30 -172 44 -198 75 -20 23 -26 42 -26 75 0 73 37 123 109
144 44 14 145 11 197 -5z m618 9 c10 -4 16 -18 16 -41 l0 -35 32 31 c33 32 81
51 131 51 26 0 28 -3 25 -32 -3 -30 -7 -33 -45 -40 -56 -9 -77 -21 -110 -65
-28 -36 -28 -38 -31 -210 l-4 -173 -34 0 -34 0 0 260 c0 250 1 260 19 260 11
0 26 -3 35 -6z m625 -24 c69 -40 127 -144 119 -219 l-3 -33 -207 1 c-205 2
-208 2 -208 -19 0 -35 26 -85 59 -113 65 -55 166 -59 248 -11 42 24 45 25 63
9 27 -25 12 -47 -52 -79 -43 -21 -66 -26 -130 -26 -114 0 -192 44 -241 135
-17 32 -22 57 -22 125 0 75 3 91 27 132 32 53 89 104 133 118 54 17 167 6 214
-20z m1431 -134 c0 -89 5 -178 10 -198 25 -89 150 -124 237 -66 61 40 73 86
73 273 l0 152 35 0 35 0 0 -259 0 -258 -35 0 c-33 0 -35 2 -35 34 l0 35 -51
-35 c-47 -31 -57 -34 -125 -34 -92 0 -142 23 -181 82 -28 41 -28 43 -31 239
l-3 198 35 -1 36 -1 0 -161z m630 118 c3 -26 7 -33 12 -23 3 9 30 28 59 43 41
20 67 26 113 25 96 -1 148 -27 188 -94 22 -38 23 -52 26 -232 l4 -193 -35 0
-35 0 -4 178 c-3 153 -6 181 -22 209 -30 50 -71 66 -149 61 -57 -3 -71 -8 -98
-33 -51 -49 -54 -60 -59 -240 l-5 -170 -35 0 -35 0 -1 250 c0 138 1 253 3 256
1 4 17 6 35 4 30 -2 33 -6 38 -41z m630 -216 l0 -258 -35 0 -35 0 0 259 0 259
35 -1 35 -1 0 -258z m508 232 c36 -20 81 -68 70 -73 -2 -1 -13 -11 -25 -21
-22 -18 -22 -18 -55 13 -87 81 -240 49 -288 -61 -46 -106 -13 -212 80 -260 30
-16 65 -28 79 -28 44 0 99 20 130 45 35 30 43 31 65 6 16 -18 16 -20 -18 -53
-43 -41 -92 -58 -173 -58 -108 0 -190 50 -231 139 -66 143 -3 316 132 365 62
23 180 16 234 -14z m250 -232 l2 -258 -35 0 c-21 0 -36 5 -36 13 -3 26 -6 492
-3 497 1 3 17 6 36 5 l33 0 3 -257z m216 256 c11 -4 16 -19 16 -46 l0 -41 27
28 c50 49 81 60 173 60 124 0 185 -37 230 -138 47 -105 34 -214 -35 -294 -49
-57 -109 -83 -194 -83 -76 0 -122 15 -164 54 -15 14 -30 26 -33 26 -2 0 -4
-58 -4 -130 l0 -130 -35 0 -35 0 0 343 c0 189 3 347 7 350 8 9 27 9 47 1z
m891 -24 c66 -41 75 -76 75 -297 l0 -193 -35 0 c-33 0 -35 2 -35 32 l0 31 -22
-20 c-37 -33 -93 -46 -177 -41 -74 5 -76 6 -113 48 -33 37 -38 49 -38 92 0 58
20 98 64 124 24 15 57 20 156 24 l125 5 3 35 c4 50 -32 101 -83 118 -48 16
-129 3 -184 -29 l-35 -21 -18 22 c-24 30 -23 33 14 54 87 52 232 60 303 16z
m543 -232 l2 -258 -35 0 -35 0 0 259 0 259 33 -1 32 -2 3 -257z m1107 232 c66
-41 75 -76 75 -297 l0 -193 -35 0 c-33 0 -35 2 -35 32 l0 31 -22 -21 c-35 -31
-72 -42 -151 -42 -83 0 -125 19 -157 72 -22 37 -26 103 -8 143 24 52 71 69
208 75 l125 5 -1 48 c0 59 -31 94 -94 108 -53 12 -130 -3 -174 -34 l-29 -20
-19 23 c-19 23 -19 24 0 43 59 59 240 74 317 27z m-5403 -1140 l3 -361 -22 -6
c-38 -9 -53 3 -53 43 l0 37 -22 -21 c-61 -56 -177 -78 -261 -48 -97 35 -159
128 -160 239 -1 114 38 186 126 237 89 51 220 39 290 -27 l27 -27 0 147 0 147
35 0 35 0 2 -360z m2076 -2 l-3 -363 -25 -1 c-52 -1 -50 -16 -50 360 0 194 3
356 7 359 3 4 21 7 40 7 l33 0 -2 -362z m-674 316 c10 -4 16 -18 16 -35 l0
-29 -120 0 -120 0 -2 -307 -3 -308 -35 0 -35 0 -3 308 -2 307 -115 0 c-93 0
-115 3 -115 14 0 8 -3 21 -6 29 -3 10 2 17 13 20 27 7 509 8 527 1z m-904
-196 c65 -40 106 -107 116 -191 l7 -57 -211 0 c-128 0 -213 -4 -217 -10 -11
-18 32 -97 66 -123 43 -32 109 -50 157 -41 42 8 107 38 117 55 5 7 15 3 31
-12 23 -21 23 -23 6 -42 -40 -45 -92 -62 -187 -62 -73 0 -98 4 -130 22 -86 46
-134 128 -135 229 0 110 40 186 125 235 43 25 61 29 125 29 68 0 82 -3 130
-32z m1267 6 c74 -55 86 -105 81 -339 l-3 -150 -30 0 c-25 0 -30 4 -33 28 -4
32 -9 33 -36 8 -50 -45 -171 -55 -240 -21 -59 29 -80 63 -81 130 0 105 52 139
233 147 l112 6 0 36 c0 20 -9 50 -20 68 -36 60 -148 68 -239 17 -41 -23 -44
-23 -57 -7 -27 36 -14 53 63 84 68 27 209 23 250 -7z m791 10 c41 -17 92 -61
92 -80 0 -6 -10 -18 -22 -27 -22 -14 -25 -12 -60 18 -85 77 -239 43 -283 -62
-22 -51 -19 -146 5 -193 54 -105 215 -128 294 -41 17 19 20 19 42 4 31 -20 30
-33 -4 -66 -36 -34 -102 -57 -166 -57 -166 0 -278 124 -263 290 8 95 55 164
142 208 50 26 167 30 223 6z m502 -6 c31 -17 51 -36 67 -67 22 -43 23 -53 21
-235 -3 -175 -4 -189 -22 -192 -30 -4 -46 7 -46 32 0 29 -11 30 -35 4 -40 -44
-164 -54 -235 -17 -61 31 -84 66 -84 126 0 103 59 140 237 149 l119 5 -5 40
c-15 110 -127 146 -258 83 l-50 -24 -16 25 c-14 21 -14 26 -1 39 54 54 228 72
308 32z"/>
<path d="M6530 12771 c-5 -11 -10 -43 -10 -71 0 -60 13 -90 40 -90 27 0 40 30
40 94 0 36 -5 60 -16 70 -21 21 -41 20 -54 -3z"/>
<path d="M7642 12778 c-12 -12 -17 -124 -6 -152 9 -23 51 -20 65 5 15 29 7
138 -12 150 -19 12 -33 11 -47 -3z"/>
<path d="M8390 12771 c-5 -11 -10 -43 -10 -71 0 -59 13 -90 38 -90 31 0 42 22
42 83 0 67 -12 97 -40 97 -11 0 -24 -9 -30 -19z"/>
<path d="M6213 12783 c-7 -3 -13 -20 -13 -39 0 -31 3 -34 30 -34 23 0 31 5 36
24 3 14 3 29 0 34 -7 12 -37 20 -53 15z"/>
<path d="M6360 12750 c0 -31 4 -40 18 -40 22 0 37 11 45 32 8 21 -17 48 -44
48 -16 0 -19 -7 -19 -40z"/>
<path d="M5990 11143 l0 -1068 64 -60 c72 -70 139 -105 245 -129 173 -38 291
-131 386 -301 93 -168 177 -233 351 -276 49 -11 116 -35 149 -52 87 -46 194
-155 240 -247 47 -95 84 -142 149 -189 68 -51 101 -66 166 -81 51 -11 61 -10
146 18 50 17 151 47 225 67 186 51 282 99 374 187 112 106 182 229 226 399 21
77 23 112 26 439 l4 355 -61 19 c-128 39 -250 150 -319 288 -72 146 -179 229
-346 268 -79 18 -142 45 -212 90 -19 12 -34 12 -111 -3 -121 -23 -124 -23
-112 9 19 49 12 134 -15 179 -13 24 -31 45 -40 49 -11 4 -15 21 -15 72 0 57
-3 70 -22 86 -29 25 -78 51 -85 45 -2 -3 3 -29 12 -59 9 -29 45 -152 81 -273
77 -265 77 -266 106 -262 17 1 25 -5 33 -31 6 -17 16 -37 23 -44 19 -19 14
-51 -13 -73 l-25 -20 46 -155 c26 -85 56 -190 68 -232 11 -43 26 -78 32 -78
23 0 64 -42 64 -65 0 -12 -6 -38 -14 -56 -13 -31 -11 -44 25 -169 45 -155 45
-156 22 -164 -27 -11 -39 12 -73 134 -18 63 -34 117 -36 119 -2 2 -10 -4 -19
-13 -9 -9 -26 -16 -38 -16 -26 0 -87 35 -87 50 0 5 -12 13 -27 16 -16 4 -46
23 -69 43 -28 24 -61 40 -105 51 -35 10 -72 20 -81 25 -16 6 -18 1 -18 -44 0
-64 -28 -122 -67 -140 -15 -7 -73 -29 -128 -48 -55 -19 -104 -39 -110 -44 -16
-15 -22 -11 -54 40 -31 48 -111 130 -161 164 l-25 17 28 50 c30 54 43 127 33
184 -8 44 -16 45 -38 7 -33 -59 -107 -80 -180 -50 -34 14 -37 39 -5 39 49 0
97 62 97 126 l0 26 -31 -26 c-27 -23 -89 -37 -89 -20 0 4 14 22 31 42 29 32
31 39 25 86 -3 28 -9 77 -12 108 l-7 57 -26 -18 c-14 -10 -37 -22 -51 -26 -24
-8 -24 -7 -7 16 50 69 57 85 57 137 0 47 4 58 31 83 17 16 36 29 43 29 6 0 -7
9 -29 19 -38 17 -65 53 -65 86 0 20 14 19 34 -4 38 -42 68 -34 146 39 18 17
47 38 63 47 19 10 26 18 19 25 -6 6 -20 4 -40 -6 -42 -22 -120 -75 -127 -87
-10 -16 -25 -10 -25 10 0 46 187 166 278 178 33 4 42 2 42 -9 0 -8 -15 -20
-32 -26 -28 -9 -22 -10 34 -5 105 9 176 -24 192 -89 5 -23 12 -28 36 -28 40 0
76 -18 88 -45 7 -16 22 -24 52 -28 22 -3 52 -13 66 -22 23 -15 25 -21 21 -77
-3 -49 -9 -65 -27 -80 -30 -24 -40 -23 -37 5 2 18 -3 22 -23 20 -37 -2 -100
-42 -100 -63 0 -35 70 -69 94 -45 23 23 36 18 36 -16 0 -26 -6 -33 -47 -51
-27 -12 -67 -22 -90 -22 -24 -1 -43 -2 -43 -4 0 -12 43 -44 80 -60 45 -19 78
-48 67 -58 -3 -3 -14 -1 -25 5 -41 22 -54 12 -23 -16 17 -16 46 -59 67 -98 49
-94 87 -132 150 -151 52 -15 81 -39 124 -106 30 -45 65 -67 81 -51 11 11 -13
103 -101 388 -29 94 -28 94 -45 11 -3 -13 -33 -54 -69 -92 -71 -77 -78 -77
-111 -5 l-17 39 40 54 c62 83 92 150 92 207 0 27 5 62 10 77 8 21 6 41 -9 88
-10 34 -51 174 -91 312 l-72 251 -59 11 c-87 16 -185 68 -260 139 -51 49 -78
86 -119 163 -83 158 -176 229 -358 274 -69 17 -121 37 -160 61 -69 43 -162
132 -188 180 l-19 35 -87 0 -88 0 0 -1067z m669 203 c7 -8 21 -12 31 -9 24 6
25 -4 3 -29 -25 -28 -4 -39 42 -21 22 9 58 16 80 15 22 -1 59 -1 82 -1 54 0
83 -27 83 -76 0 -39 -28 -75 -60 -75 -53 0 -204 -83 -268 -147 -24 -24 -45
-43 -48 -43 -19 0 -74 32 -83 48 -17 31 -13 67 8 86 10 9 21 30 25 46 3 17 13
36 23 44 10 8 33 27 51 41 37 31 34 45 -11 45 -24 0 -28 3 -19 12 7 7 12 27
12 45 0 26 4 33 19 33 10 0 24 -6 30 -14z"/>
<path d="M6747 11243 c-4 -3 2 -12 13 -20 13 -10 20 -26 20 -49 0 -33 12 -42
36 -26 41 27 15 102 -35 102 -15 0 -31 -3 -34 -7z"/>
<path d="M6898 11215 c4 -37 16 -46 26 -19 6 16 -9 54 -22 54 -5 0 -6 -16 -4
-35z"/>
<path d="M6700 11199 c0 -17 20 -49 30 -49 14 0 12 34 -2 48 -15 15 -28 15
-28 1z"/>
<path d="M6632 11178 c-18 -18 -14 -56 8 -78 22 -22 42 -25 71 -9 23 12 17 27
-17 39 -13 5 -26 21 -30 35 -7 28 -14 31 -32 13z"/>
<path d="M6572 11046 c12 -27 34 -40 50 -30 6 4 -2 17 -18 30 -37 30 -46 30
-32 0z"/>
<path d="M7108 12149 c-24 -13 -23 -48 1 -73 17 -19 42 -98 195 -629 31 -105
32 -107 58 -107 16 0 19 5 14 23 -5 22 -132 456 -180 618 -18 59 -24 98 -19
119 5 26 2 36 -12 47 -22 15 -34 16 -57 2z"/>
<path d="M8040 12129 c-41 -5 -212 -8 -380 -6 -274 2 -310 0 -357 -16 -29 -10
-55 -22 -58 -27 -3 -5 4 -24 15 -43 14 -24 20 -50 19 -79 -2 -32 4 -52 24 -81
29 -43 49 -123 41 -165 -5 -23 2 -41 29 -81 47 -68 61 -112 53 -171 -6 -45 -5
-50 23 -69 29 -21 61 -84 61 -121 0 -17 17 -37 25 -29 1 2 -6 32 -16 66 -13
41 -29 70 -49 87 -27 22 -30 30 -30 84 0 64 -18 118 -56 169 -18 24 -24 44
-24 86 0 58 -17 118 -47 163 -10 16 -18 48 -19 75 0 26 -8 59 -17 73 -10 14
-17 27 -17 29 0 3 28 12 63 22 55 16 91 17 327 11 207 -6 300 -4 424 9 174 17
234 11 243 -26 4 -15 14 -19 47 -19 23 0 49 -6 58 -12 12 -9 34 -106 78 -328
33 -173 83 -428 110 -567 28 -139 50 -254 50 -257 0 -15 -183 -49 -221 -41
-32 7 -49 42 -49 100 0 25 -3 45 -7 45 -9 0 -440 -73 -540 -91 -35 -6 -63 -15
-63 -20 0 -5 10 -7 23 -5 55 12 544 96 559 96 5 0 8 -13 8 -29 0 -41 19 -90
40 -101 29 -16 110 -12 189 9 40 11 74 21 76 23 4 4 -123 670 -159 838 -8 36
-25 121 -38 189 -12 69 -29 133 -38 143 -8 9 -31 19 -51 21 -21 2 -50 15 -69
30 -29 25 -38 27 -118 26 -48 -1 -121 -6 -162 -10z"/>
<path d="M8160 11914 c-9 -3 -24 -20 -35 -39 -13 -25 -23 -34 -35 -30 -21 7
-40 -32 -40 -79 0 -34 -21 -63 -39 -52 -14 9 -41 -46 -41 -84 0 -23 -4 -30
-19 -30 -24 0 -61 45 -61 75 0 32 -40 81 -52 63 -12 -19 -78 54 -78 88 0 31
-42 71 -50 48 -4 -12 -9 -11 -30 3 -26 18 -60 28 -60 16 0 -3 23 -31 52 -61
42 -44 49 -56 36 -61 -14 -5 -12 -11 13 -39 17 -18 39 -35 51 -37 22 -5 68
-43 68 -57 0 -4 -7 -8 -15 -8 -8 0 -15 -4 -15 -8 0 -14 54 -60 82 -71 27 -10
27 -11 11 -40 -10 -16 -32 -36 -50 -45 -34 -16 -81 -85 -49 -73 8 3 17 3 19
-1 7 -12 -28 -67 -50 -76 -25 -12 -60 -79 -44 -84 6 -2 8 -14 5 -28 -3 -13 -3
-32 0 -41 5 -13 16 -2 43 47 44 80 40 75 56 62 11 -9 17 -6 27 14 8 14 13 38
12 52 -1 15 6 42 15 60 18 33 33 42 33 20 1 -26 30 27 30 54 0 15 4 28 8 28
18 0 52 -48 52 -74 0 -16 11 -38 27 -54 23 -23 27 -24 32 -9 6 15 11 13 38
-15 17 -18 34 -47 38 -65 7 -33 50 -72 57 -51 3 7 10 5 20 -6 9 -9 32 -19 50
-23 l33 -6 -58 63 c-57 63 -70 87 -42 76 9 -3 15 0 15 8 0 19 -34 46 -58 46
-21 0 -92 54 -92 71 0 5 11 9 25 9 14 0 25 4 25 9 0 15 -60 61 -80 61 -26 0
-50 10 -50 22 0 22 43 69 75 82 34 15 83 82 50 70 -20 -8 -19 7 3 51 9 19 27
38 39 41 28 8 61 54 38 54 -11 0 -13 7 -8 30 5 30 3 32 -27 24z"/>
<path d="M7540 11176 c0 -27 8 -49 28 -75 42 -54 54 -93 50 -160 l-3 -60 30 6
c17 3 47 9 68 15 l38 9 -38 42 c-21 23 -57 78 -81 122 -23 44 -54 94 -67 110
l-24 30 -1 -39z"/>
<path d="M5281 8525 c-22 -20 -45 -34 -51 -30 -29 18 -54 -47 -28 -73 19 -19
41 -14 80 18 20 17 53 37 72 45 35 15 49 35 24 35 -6 0 -22 9 -34 21 l-22 21
-41 -37z"/>
<path d="M9406 8545 c-3 -8 -17 -17 -31 -21 -33 -8 -32 -19 5 -34 17 -7 50
-28 73 -46 50 -40 84 -44 96 -11 11 30 -4 57 -33 57 -12 0 -33 12 -47 26 -34
37 -56 47 -63 29z"/>
<path d="M8902 5580 c-6 -19 -29 -82 -51 -140 -23 -58 -41 -106 -41 -107 0 -2
47 -3 105 -3 58 0 105 2 105 5 0 5 -80 216 -99 260 -7 18 -10 16 -19 -15z"/>
<path d="M10162 3960 c-43 -26 -62 -74 -62 -152 0 -111 51 -174 139 -172 91 1
141 62 141 171 0 69 -27 131 -69 156 -39 23 -108 22 -149 -3z"/>
<path d="M4585 3703 c-52 -13 -71 -66 -39 -111 12 -18 25 -22 66 -22 45 0 54
4 85 36 26 28 33 44 31 68 -3 31 -4 31 -63 33 -33 0 -69 -1 -80 -4z"/>
<path d="M7753 3960 c-49 -29 -68 -73 -67 -155 0 -57 5 -77 25 -107 66 -102
207 -85 247 31 28 79 3 185 -53 229 -36 29 -108 30 -152 2z"/>
<path d="M11274 3696 c-48 -21 -59 -71 -24 -106 14 -14 33 -20 66 -20 39 0 51
5 80 34 26 26 34 42 34 70 l0 36 -62 0 c-35 -1 -77 -7 -94 -14z"/>
<path d="M10744 2578 c-51 -11 -110 -67 -124 -117 -36 -129 27 -247 141 -266
172 -29 287 188 172 325 -45 54 -112 75 -189 58z"/>
<path d="M11927 2579 c-85 -20 -137 -93 -137 -190 0 -169 175 -258 301 -152
38 32 55 66 64 124 21 140 -94 251 -228 218z"/>
<path d="M5135 2579 c-55 -18 -115 -88 -115 -136 0 -23 0 -23 176 -23 l176 0
-7 33 c-9 41 -48 93 -85 112 -39 20 -107 27 -145 14z"/>
<path d="M9142 2578 c-63 -14 -117 -71 -132 -140 -32 -143 76 -265 215 -244
116 19 181 137 145 267 -14 50 -72 105 -125 118 -49 12 -44 12 -103 -1z"/>
<path d="M9650 2351 c-95 -50 -46 -163 70 -163 96 1 160 57 160 141 l0 41 -98
0 c-76 0 -105 -4 -132 -19z"/>
<path d="M11323 2360 c-45 -10 -61 -26 -69 -66 -12 -66 38 -107 129 -105 91 1
147 52 147 132 l0 49 -87 -1 c-49 -1 -103 -5 -120 -9z"/>
<path d="M5801 1558 c-99 -34 -150 -169 -102 -273 64 -142 259 -148 328 -11
48 95 15 229 -67 271 -41 21 -116 27 -159 13z"/>
<path d="M6427 1556 c-21 -8 -48 -22 -59 -33 -25 -22 -61 -99 -53 -113 8 -12
324 -13 343 -1 11 7 11 15 -3 47 -21 51 -42 73 -90 95 -47 22 -86 23 -138 5z"/>
<path d="M7654 1331 c-57 -35 -50 -121 11 -149 35 -16 108 -15 149 2 51 21 76
60 76 117 l0 49 -102 0 c-83 0 -109 -4 -134 -19z"/>
<path d="M8965 1334 c-38 -19 -45 -31 -45 -75 0 -53 35 -82 109 -87 97 -7 160
41 169 128 l5 50 -104 0 c-74 0 -112 -5 -134 -16z"/>
</g>
</svg>
